HIERARCHY
ROOT Hips
{
	OFFSET 0.000000 121.760803 0.000000
	CHANNELS 6 Xposition Yposition Zposition Xrotation Yrotation Zrotation 
	JOINT Spine
	{
		OFFSET 0.072000 7.257294 -0.789700
		CHANNELS 3 Xrotation Yrotation Zrotation
		JOINT Spine1
		{
			OFFSET 0.000000 12.508769 -0.658067
			CHANNELS 3 Xrotation Yrotation Zrotation
			JOINT Spine1_split
			{
				OFFSET 0.000000 12.508769 -0.658067
				CHANNELS 3 Xrotation Yrotation Zrotation
				JOINT Spine2
				{
					OFFSET 0.000000 12.508769 -0.658067
					CHANNELS 3 Xrotation Yrotation Zrotation
					JOINT Neck
					{
						OFFSET 0.000000 14.033295 7.520400
						CHANNELS 3 Xrotation Yrotation Zrotation
						JOINT Head
						{
							OFFSET 0.000000 8.198502 5.703100
							CHANNELS 3 Xrotation Yrotation Zrotation
							JOINT HeadTop_End
							{
								OFFSET 0.000000 17.760803 13.332701
								CHANNELS 3 Xrotation Yrotation Zrotation
								End Site
								{
									OFFSET 0.000000 0.000000 0.000000
								}
							}
						}
					}
					JOINT LeftShoulder
					{
						OFFSET 6.292450 5.785301 -0.669000
						CHANNELS 3 Xrotation Yrotation Zrotation
						JOINT LeftShoulder_split
						{
							OFFSET 6.292450 5.785301 -0.669000
							CHANNELS 3 Xrotation Yrotation Zrotation
							JOINT LeftArm
							{
								OFFSET 13.907140 -6.093903 1.965100
								CHANNELS 3 Xrotation Yrotation Zrotation
								JOINT LeftForeArm
								{
									OFFSET 34.140198 0.000000 0.000000
									CHANNELS 3 Xrotation Yrotation Zrotation
									JOINT LeftHand
									{
										OFFSET 40.960209 0.000000 0.000000
										CHANNELS 3 Xrotation Yrotation Zrotation
										JOINT LeftHandThumb1
										{
											OFFSET 10.006996 -7.170425 9.573125
											CHANNELS 3 Xrotation Yrotation Zrotation
											JOINT LeftHandThumb2
											{
												OFFSET 1.835007 -1.059448 1.059443
												CHANNELS 3 Xrotation Yrotation Zrotation
												JOINT LeftHandThumb3
												{
													OFFSET 2.112267 -1.219513 1.219518
													CHANNELS 3 Xrotation Yrotation Zrotation
													JOINT LeftHandThumb4
													{
														OFFSET 4.843811 -2.796570 2.796576
														CHANNELS 3 Xrotation Yrotation Zrotation
														End Site
														{
															OFFSET 0.000000 0.000000 0.000000
														}
													}
												}
											}
										}
										JOINT LeftHandIndex1
										{
											OFFSET 18.389847 -0.922348 4.596882
											CHANNELS 3 Xrotation Yrotation Zrotation
											JOINT LeftHandIndex2
											{
												OFFSET 4.711273 0.000000 0.000000
												CHANNELS 3 Xrotation Yrotation Zrotation
												JOINT LeftHandIndex3
												{
													OFFSET 2.886131 0.000000 0.000000
													CHANNELS 3 Xrotation Yrotation Zrotation
													JOINT LeftHandIndex4
													{
														OFFSET 6.145912 0.000000 0.000000
														CHANNELS 3 Xrotation Yrotation Zrotation
														End Site
														{
															OFFSET 0.000000 0.000000 0.000000
														}
													}
												}
											}
										}
										JOINT LeftHandMiddle1
										{
											OFFSET 18.013008 0.000000 0.000000
											CHANNELS 3 Xrotation Yrotation Zrotation
											JOINT LeftHandMiddle2
											{
												OFFSET 4.946693 0.000000 0.000000
												CHANNELS 3 Xrotation Yrotation Zrotation
												JOINT LeftHandMiddle3
												{
													OFFSET 3.342232 0.000000 0.000000
													CHANNELS 3 Xrotation Yrotation Zrotation
													JOINT LeftHandMiddle4
													{
														OFFSET 4.461754 0.000000 0.000000
														CHANNELS 3 Xrotation Yrotation Zrotation
														End Site
														{
															OFFSET 0.000000 0.000000 0.000000
														}
													}
												}
											}
										}
										JOINT LeftHandRing1
										{
											OFFSET 15.849892 -0.102921 -4.126150
											CHANNELS 3 Xrotation Yrotation Zrotation
											JOINT LeftHandRing2
											{
												OFFSET 3.527054 0.000000 0.000000
												CHANNELS 3 Xrotation Yrotation Zrotation
												JOINT LeftHandRing3
												{
													OFFSET 2.961098 0.000000 0.000000
													CHANNELS 3 Xrotation Yrotation Zrotation
													JOINT LeftHandRing4
													{
														OFFSET 4.927200 0.000000 0.000000
														CHANNELS 3 Xrotation Yrotation Zrotation
														End Site
														{
															OFFSET 0.000000 0.000000 0.000000
														}
													}
												}
											}
										}
										JOINT LeftHandPinky1
										{
											OFFSET 12.791824 -0.832031 -6.799156
											CHANNELS 3 Xrotation Yrotation Zrotation
											JOINT LeftHandPinky2
											{
												OFFSET 3.327133 0.000000 0.000000
												CHANNELS 3 Xrotation Yrotation Zrotation
												JOINT LeftHandPinky3
												{
													OFFSET 3.014900 0.000000 0.000000
													CHANNELS 3 Xrotation Yrotation Zrotation
													JOINT LeftHandPinky4
													{
														OFFSET 5.847786 0.000000 0.000000
														CHANNELS 3 Xrotation Yrotation Zrotation
														End Site
														{
															OFFSET 0.000000 0.000000 0.000000
														}
													}
												}
											}
										}
									}
								}
							}
						}
					}
					JOINT RightShoulder
					{
						OFFSET -6.292450 5.785301 -0.669000
						CHANNELS 3 Xrotation Yrotation Zrotation
						JOINT RightShoulder_split
						{
							OFFSET -6.292450 5.785301 -0.669000
							CHANNELS 3 Xrotation Yrotation Zrotation
							JOINT RightArm
							{
								OFFSET -13.907140 -6.093903 1.965100
								CHANNELS 3 Xrotation Yrotation Zrotation
								JOINT RightForeArm
								{
									OFFSET -34.140198 0.000000 0.000000
									CHANNELS 3 Xrotation Yrotation Zrotation
									JOINT RightHand
									{
										OFFSET -40.960209 0.000000 0.000000
										CHANNELS 3 Xrotation Yrotation Zrotation
										JOINT RightHandThumb1
										{
											OFFSET -10.007050 -7.170456 9.573117
											CHANNELS 3 Xrotation Yrotation Zrotation
											JOINT RightHandThumb2
											{
												OFFSET -1.835007 -1.059448 1.059443
												CHANNELS 3 Xrotation Yrotation Zrotation
												JOINT RightHandThumb3
												{
													OFFSET -2.112267 -1.219513 1.219518
													CHANNELS 3 Xrotation Yrotation Zrotation
													JOINT RightHandThumb4
													{
														OFFSET -4.843834 -2.796585 2.796590
														CHANNELS 3 Xrotation Yrotation Zrotation
														End Site
														{
															OFFSET 0.000000 0.000000 0.000000
														}
													}
												}
											}
										}
										JOINT RightHandIndex1
										{
											OFFSET -18.389870 -0.922424 4.596786
											CHANNELS 3 Xrotation Yrotation Zrotation
											JOINT RightHandIndex2
											{
												OFFSET -4.711273 0.000000 0.000000
												CHANNELS 3 Xrotation Yrotation Zrotation
												JOINT RightHandIndex3
												{
													OFFSET -2.886131 0.000000 0.000000
													CHANNELS 3 Xrotation Yrotation Zrotation
													JOINT RightHandIndex4
													{
														OFFSET -6.145920 0.000000 0.000000
														CHANNELS 3 Xrotation Yrotation Zrotation
														End Site
														{
															OFFSET 0.000000 0.000000 0.000000
														}
													}
												}
											}
										}
										JOINT RightHandMiddle1
										{
											OFFSET -18.013008 0.000000 0.000000
											CHANNELS 3 Xrotation Yrotation Zrotation
											JOINT RightHandMiddle2
											{
												OFFSET -4.946693 0.000000 0.000000
												CHANNELS 3 Xrotation Yrotation Zrotation
												JOINT RightHandMiddle3
												{
													OFFSET -3.342232 0.000000 0.000000
													CHANNELS 3 Xrotation Yrotation Zrotation
													JOINT RightHandMiddle4
													{
														OFFSET -4.461754 0.000000 0.000000
														CHANNELS 3 Xrotation Yrotation Zrotation
														End Site
														{
															OFFSET 0.000000 0.000000 0.000000
														}
													}
												}
											}
										}
										JOINT RightHandRing1
										{
											OFFSET -15.849876 -0.102936 -4.126237
											CHANNELS 3 Xrotation Yrotation Zrotation
											JOINT RightHandRing2
											{
												OFFSET -3.527054 0.000000 0.000000
												CHANNELS 3 Xrotation Yrotation Zrotation
												JOINT RightHandRing3
												{
													OFFSET -2.961098 0.000000 0.000000
													CHANNELS 3 Xrotation Yrotation Zrotation
													JOINT RightHandRing4
													{
														OFFSET -4.927200 0.000000 0.000000
														CHANNELS 3 Xrotation Yrotation Zrotation
														End Site
														{
															OFFSET 0.000000 0.000000 0.000000
														}
													}
												}
											}
										}
										JOINT RightHandPinky1
										{
											OFFSET -12.791786 -0.832077 -6.799222
											CHANNELS 3 Xrotation Yrotation Zrotation
											JOINT RightHandPinky2
											{
												OFFSET -3.327133 0.000000 0.000000
												CHANNELS 3 Xrotation Yrotation Zrotation
												JOINT RightHandPinky3
												{
													OFFSET -3.014900 0.000000 0.000000
													CHANNELS 3 Xrotation Yrotation Zrotation
													JOINT RightHandPinky4
													{
														OFFSET -5.847786 0.000000 0.000000
														CHANNELS 3 Xrotation Yrotation Zrotation
														End Site
														{
															OFFSET 0.000000 0.000000 0.000000
														}
													}
												}
											}
										}
									}
								}
							}
						}
					}
				}
			}
		}
	}
	JOINT LeftUpLeg
	{
		OFFSET 13.026900 -6.336304 -1.092800
		CHANNELS 3 Xrotation Yrotation Zrotation
		JOINT LeftLeg
		{
			OFFSET 0.524474 -46.096886 9.782700
			CHANNELS 3 Xrotation Yrotation Zrotation
			JOINT LeftFoot
			{
				OFFSET -0.524474 -53.427422 -12.948200
				CHANNELS 3 Xrotation Yrotation Zrotation
				JOINT LeftToeBase
				{
					OFFSET 0.192200 -14.009700 16.364100
					CHANNELS 3 Xrotation Yrotation Zrotation
					JOINT LeftToe_End
					{
						OFFSET -1.784700 -0.561700 9.474800
						CHANNELS 3 Xrotation Yrotation Zrotation
						End Site
						{
							OFFSET 0.000000 0.000000 0.000000
						}
					}
				}
			}
		}
	}
	JOINT RightUpLeg
	{
		OFFSET -12.883000 -6.336304 -1.092800
		CHANNELS 3 Xrotation Yrotation Zrotation
		JOINT RightLeg
		{
			OFFSET -0.524587 -46.096825 9.782800
			CHANNELS 3 Xrotation Yrotation Zrotation
			JOINT RightFoot
			{
				OFFSET 0.524587 -53.427383 -12.948300
				CHANNELS 3 Xrotation Yrotation Zrotation
				JOINT RightToeBase
				{
					OFFSET -0.192200 -14.009700 16.364100
					CHANNELS 3 Xrotation Yrotation Zrotation
					JOINT RightToe_End
					{
						OFFSET 1.784700 -0.561700 9.474800
						CHANNELS 3 Xrotation Yrotation Zrotation
						End Site
						{
							OFFSET 0.000000 0.000000 0.000000
						}
					}
				}
			}
		}
	}
}
MOTION
Frames: 4
Frame Time: 0.016667
2.731004 82.944588 -58.772079 16.304693 -76.591877 15.326627 4.471940 9.252677 -3.208224 9.594763 18.344804 -7.012217 0.000000 0.000000 0.000000 9.594756 18.344797 -7.012214 2.735906 2.537200 0.917083 2.210332 -0.400985 -2.541340 -0.000002 0.000001 -0.000000 4.442676 -4.896772 0.391717 0.000000 0.000000 0.000000 -74.044838 -32.200879 -59.779544 45.630073 -71.166364 44.297458 30.811557 -13.945423 5.324252 -19.313927 7.326448 -0.325114 17.757227 27.151354 -7.102071 0.000001 -0.000008 -0.000014 0.000001 -0.000005 -0.000001 8.737633 0.556780 -27.858989 -3.246445 1.052145 -21.338372 -0.000010 0.000006 -0.000004 -0.000000 0.000002 -0.000001 -3.793150 6.626416 -20.382888 -1.406091 -1.003767 -21.514836 -0.000001 0.000008 0.000003 0.000000 0.000001 -0.000000 -8.139621 9.456989 -29.778928 1.966548 -4.844272 -27.350980 0.000003 0.000004 -0.000000 -0.000000 0.000000 0.000001 -7.314758 11.108283 -42.805820 1.162391 -7.791590 -40.565238 0.000008 -0.000000 0.000003 -0.000000 -0.000000 0.000002 3.889429 8.333837 -7.261188 0.000000 0.000000 0.000000 -42.000240 -3.203194 27.938520 -12.789871 47.794932 2.424344 36.354194 22.263333 -26.066806 -9.151839 -3.932279 17.229571 -8.906340 -3.563909 -6.479053 -0.000003 0.000023 -0.000002 0.000002 -0.000000 0.000000 -2.009636 8.213996 -5.048298 -1.625960 -0.980989 33.676524 -0.000002 -0.000009 -0.000005 0.000000 0.000003 0.000000 -3.382738 -5.223042 -15.049912 -1.435140 -1.099675 25.006617 0.000007 0.000009 0.000000 -0.000001 -0.000003 0.000000 -8.188929 -12.219948 -0.270455 2.472526 4.601784 34.000429 0.000001 0.000006 0.000006 0.000000 0.000001 0.000001 -14.081787 -14.805128 6.122714 3.294871 9.546753 30.562303 -0.000002 -0.000001 0.000002 -0.000001 -0.000003 -0.000001 -47.626936 -10.368859 26.708584 73.874602 13.848802 0.915324 -15.023559 4.965186 -31.266205 -2.515491 -3.237324 0.633300 -0.000000 -0.000001 -0.000000 -54.843991 -2.462975 -14.623367 79.978530 19.092431 -5.539385 -28.970804 -1.131900 3.393144 -1.854634 -0.300659 0.346313 0.000000 0.000001 0.000000 
3.098464 81.948311 -59.289333 23.629267 -75.322869 22.090712 4.579485 9.096543 -3.297354 9.805974 18.007215 -7.165122 0.000000 0.000000 0.000000 9.805971 18.007222 -7.165120 1.927746 4.490857 1.287778 1.537583 -0.532058 -4.732043 0.000001 -0.000001 -0.000000 4.342711 -4.985469 -0.341767 0.000000 0.000000 0.000000 -66.423282 -29.193219 -56.580488 44.445451 -70.007404 43.935800 31.304478 -11.015004 4.016405 -19.044917 6.177792 0.482004 19.312387 28.165038 -8.456597 0.000001 -0.000006 -0.000012 -0.000000 0.000002 0.000000 9.294370 -0.271000 -31.038459 -3.248162 0.907478 -22.504495 -0.000009 0.000009 -0.000006 -0.000001 0.000001 0.000001 -3.842865 6.742093 -20.716322 -1.447309 -1.155398 -22.951732 -0.000002 0.000009 0.000001 0.000000 0.000002 0.000001 -8.079866 9.523685 -29.657948 1.892679 -4.850350 -27.940892 0.000002 0.000006 0.000002 0.000001 -0.000002 0.000002 -7.803376 10.746644 -42.756568 1.095370 -7.784622 -41.809210 0.000008 0.000000 0.000001 -0.000001 0.000001 -0.000000 3.540741 8.113210 -5.624217 0.000000 0.000000 0.000000 -39.216078 -4.972968 28.094467 -12.221736 46.311483 3.788296 34.197664 22.070044 -22.498751 -9.063454 -3.936845 17.210062 -8.695222 -3.775168 -6.551196 -0.000004 0.000022 -0.000001 0.000000 -0.000002 -0.000000 -2.062660 8.026966 -3.931498 -1.632738 -0.857248 34.503083 -0.000001 -0.000005 -0.000002 0.000000 -0.000000 -0.000001 -3.225488 -5.131283 -13.367338 -1.402178 -0.904895 26.301233 0.000006 0.000006 0.000000 0.000000 0.000003 0.000000 -7.680296 -12.230756 1.506791 2.246277 4.705177 35.492610 0.000001 0.000001 0.000009 0.000000 0.000001 -0.000001 -13.333125 -14.852460 8.352900 3.002300 9.636740 32.213911 -0.000002 0.000001 0.000003 -0.000000 0.000004 0.000003 -51.343727 -11.155228 27.437625 74.862514 12.639563 0.692031 -14.728516 4.640801 -30.808709 -2.479133 -3.226624 0.662928 -0.000000 0.000001 0.000000 -57.868846 -1.990884 -14.322957 81.032067 18.263552 -5.024218 -29.147112 -1.202257 3.576973 -2.079974 -0.442232 0.287587 -0.000000 -0.000000 -0.000000 
3.496531 81.182877 -59.742188 29.616168 -73.803302 27.693970 4.689137 8.943240 -3.383497 10.016242 17.679747 -7.291495 0.000000 0.000000 0.000000 10.016243 17.679740 -7.291497 1.141876 6.463883 1.637534 0.937888 -0.640673 -6.991574 0.000004 0.000001 -0.000001 4.231860 -4.936950 -0.833285 0.000000 0.000000 0.000000 -58.521402 -25.699400 -53.642653 41.104481 -69.046478 41.375783 30.954189 -7.949371 3.669312 -18.695741 5.341802 1.222994 19.851262 28.173186 -9.185007 0.000001 -0.000008 -0.000013 -0.000001 0.000000 0.000000 9.121592 -1.933214 -33.603335 -3.251631 0.762728 -23.660880 -0.000009 0.000011 -0.000003 0.000001 0.000000 0.000003 -3.890813 6.785530 -21.931751 -1.491382 -1.304135 -24.365629 -0.000001 0.000008 -0.000002 0.000001 -0.000001 -0.000002 -7.771795 10.307841 -30.766457 1.809484 -4.872214 -28.906860 -0.000001 0.000004 -0.000005 0.000006 -0.000001 0.000000 -7.772683 11.953593 -44.457746 1.028322 -7.779509 -43.355322 0.000007 0.000001 0.000000 0.000003 0.000002 -0.000001 3.219528 7.942039 -3.888786 0.000000 0.000000 0.000000 -35.652379 -7.358677 27.766297 -11.633914 45.311437 5.140173 31.216874 21.636475 -18.440997 -8.993643 -3.944195 17.135312 -8.463735 -3.999591 -6.613708 -0.000003 0.000022 -0.000004 0.000001 -0.000002 -0.000003 -2.142771 7.757681 -2.456756 -1.629386 -0.726824 35.289617 -0.000005 -0.000012 -0.000009 0.000000 0.000001 -0.000000 -3.043232 -5.002370 -11.157963 -1.372903 -0.672054 27.878648 0.000006 0.000007 0.000001 -0.000001 -0.000002 -0.000002 -7.078846 -12.195036 3.756904 1.980158 4.816479 37.201056 -0.000002 0.000001 0.000006 -0.000003 0.000001 -0.000000 -12.440653 -14.869030 10.893925 2.656914 9.731688 34.190032 -0.000001 0.000000 0.000001 -0.000001 -0.000001 0.000002 -54.918956 -11.778138 27.777399 75.502182 11.599385 0.446865 -14.244772 4.316353 -30.266911 -2.405848 -3.232637 0.742431 -0.000000 0.000003 0.000000 -60.717472 -1.385713 -14.130195 81.798899 17.347502 -4.618576 -29.197020 -1.370538 3.952343 -2.114524 -0.465152 0.283342 -0.000000 -0.000002 -0.000000 
3.905199 80.649887 -60.135487 34.173492 -72.156809 32.070870 4.807486 8.791182 -3.458418 10.238191 17.364533 -7.376336 0.000000 0.000000 0.000000 10.238201 17.364538 -7.376341 0.368239 8.396663 1.955986 0.410705 -0.716190 -9.243255 0.000001 -0.000001 -0.000000 4.107736 -4.811339 -1.179668 0.000000 0.000000 0.000000 -50.713024 -21.636933 -51.563164 36.144453 -68.037659 36.990139 29.863718 -5.250588 4.082336 -18.282719 4.747875 1.912508 19.476283 27.304100 -9.321537 0.000002 -0.000007 -0.000014 0.000001 0.000000 0.000000 8.191133 -4.289876 -35.718119 -3.258105 0.613780 -24.845300 -0.000008 0.000012 -0.000008 0.000002 0.000002 0.000001 -3.936827 6.766886 -23.953762 -1.539533 -1.453375 -25.791190 -0.000003 0.000006 0.000002 -0.000003 -0.000001 0.000002 -7.141147 11.712612 -33.013067 1.716895 -4.907857 -30.228730 0.000004 0.000004 0.000000 0.000002 0.000001 0.000002 -7.043586 14.522705 -47.782600 0.961479 -7.775737 -45.186144 0.000004 0.000001 0.000003 -0.000003 -0.000001 0.000001 2.932180 7.881681 -2.048411 0.000000 0.000000 0.000000 -31.285835 -10.550643 27.298314 -11.071063 45.033360 6.402681 27.469761 20.872042 -13.854838 -8.937092 -3.951751 17.012512 -8.206379 -4.247605 -6.666324 -0.000004 0.000022 -0.000002 0.000001 -0.000000 -0.000000 -2.237310 7.418791 -0.626215 -1.620781 -0.585850 36.089634 -0.000005 -0.000011 -0.000004 0.000000 -0.000001 -0.000003 -2.842428 -4.831146 -8.446980 -1.353442 -0.403326 29.723771 0.000005 0.000010 0.000001 -0.000000 0.000007 0.000001 -6.401995 -12.092147 6.441896 1.678100 4.929166 39.109154 0.000002 -0.000001 0.000006 -0.000000 0.000004 -0.000002 -11.428153 -14.820805 13.730219 2.265931 9.821382 36.452467 -0.000001 0.000001 0.000000 -0.000001 -0.000001 0.000002 -58.200793 -12.161387 27.704813 75.799937 10.779091 0.242473 -13.668072 4.038429 -29.651627 -2.332841 -3.237116 0.814645 -0.000000 0.000000 0.000000 -63.268951 -0.633609 -14.042819 82.298548 16.348336 -4.322241 -29.148386 -1.579691 4.497902 -2.015164 -0.416303 0.308882 0.000000 -0.000000 0.000000 
